<svg version="1.1" xmlns="http://www.w3.org/2000/svg" width="132" height="133">
<path d="M0 0 C1.10408203 0.01353516 1.10408203 0.01353516 2.23046875 0.02734375 C4.0287888 0.05069856 5.82693911 0.08656164 7.625 0.125 C7.625 5.075 7.625 10.025 7.625 15.125 C3.335 15.125 -0.955 15.125 -5.375 15.125 C-5.375 22.715 -5.375 30.305 -5.375 38.125 C3.205 38.125 11.785 38.125 20.625 38.125 C20.625 25.585 20.625 13.045 20.625 0.125 C26.5340625 0.0940625 26.5340625 0.0940625 32.5625 0.0625 C33.80636475 0.053396 35.05022949 0.04429199 36.33178711 0.03491211 C37.78983765 0.03116577 37.78983765 0.03116577 39.27734375 0.02734375 C40.77769165 0.01948853 40.77769165 0.01948853 42.30834961 0.01147461 C44.625 0.125 44.625 0.125 45.625 1.125 C45.69771741 3.47813555 45.70870868 5.83333668 45.6875 8.1875 C45.67847656 9.47785156 45.66945313 10.76820312 45.66015625 12.09765625 C45.64855469 13.09667969 45.63695313 14.09570312 45.625 15.125 C41.995 15.125 38.365 15.125 34.625 15.125 C34.625 35.915 34.625 56.705 34.625 78.125 C42.215 78.125 49.805 78.125 57.625 78.125 C57.625 73.835 57.625 69.545 57.625 65.125 C62.575 65.125 67.525 65.125 72.625 65.125 C72.70672936 67.6465021 72.76583373 70.16529917 72.8125 72.6875 C72.83763672 73.39197266 72.86277344 74.09644531 72.88867188 74.82226562 C72.9726258 80.89493272 71.90482819 85.77450613 67.52197266 90.29321289 C63.82223008 92.6326001 60.7155935 92.70249862 56.47265625 92.65625 C55.69490341 92.6600769 54.91715057 92.66390381 54.11582947 92.66784668 C52.47605083 92.67056034 50.8362285 92.66323733 49.1965332 92.64648438 C46.69838997 92.62509325 44.20313161 92.64628674 41.70507812 92.671875 C40.10676453 92.66923106 38.50845273 92.6641047 36.91015625 92.65625 C36.16935318 92.66434692 35.42855011 92.67244385 34.66529846 92.68078613 C29.52440354 92.58873301 26.53396539 91.4486638 22.625 88.125 C19.97633005 84.64974764 20.39598921 80.98035912 20.4296875 76.734375 C20.4325174 76.02976135 20.43534729 75.32514771 20.43826294 74.59918213 C20.44942199 72.3576124 20.47451807 70.11644814 20.5 67.875 C20.51003536 66.35156829 20.51916024 64.82813029 20.52734375 63.3046875 C20.54934709 59.57799414 20.58384728 55.85153667 20.625 52.125 C19.6870459 52.14594727 18.7490918 52.16689453 17.78271484 52.18847656 C14.28261375 52.25689373 10.78322934 52.30691586 7.28271484 52.34472656 C5.77153264 52.36476791 4.26042728 52.39200905 2.74951172 52.42675781 C0.56979357 52.47561109 -1.60889431 52.49804224 -3.7890625 52.515625 C-5.0982666 52.53657227 -6.4074707 52.55751953 -7.75634766 52.57910156 C-11.99587491 52.04708694 -14.08859554 50.8066673 -17.375 48.125 C-19.88473132 44.36040302 -19.71588081 41.31562743 -19.74609375 36.94921875 C-19.75512222 36.14643997 -19.7641507 35.34366119 -19.77345276 34.51655579 C-19.78795638 32.81779712 -19.79684228 31.11898258 -19.80053711 29.42016602 C-19.81241111 26.83187596 -19.86157151 24.24598836 -19.91210938 21.65820312 C-19.92157675 20.00521993 -19.92881028 18.35222213 -19.93359375 16.69921875 C-19.95312607 15.93026779 -19.97265839 15.16131683 -19.99278259 14.36906433 C-19.95936941 10.35231248 -19.56601222 7.86005137 -17.0144043 4.67456055 C-11.93720943 -0.22980963 -6.66475719 -0.15667603 0 0 Z " fill="#FFFFFF" transform="translate(19.375,40.875)"/>
<path d="M0 0 C1.16662926 -0.00574036 1.16662926 -0.00574036 2.35682678 -0.01159668 C3.99660542 -0.01431034 5.63642775 -0.00698733 7.27612305 0.00976562 C9.77426628 0.03115675 12.26952464 0.00996326 14.76757812 -0.015625 C16.36589172 -0.01298106 17.96420352 -0.0078547 19.5625 0 C20.67370461 -0.01214539 20.67370461 -0.01214539 21.80735779 -0.02453613 C26.94825271 0.06751699 29.93869086 1.2075862 33.84765625 4.53125 C36.4963262 8.00650236 36.07666704 11.67589088 36.04296875 15.921875 C36.04013885 16.62648865 36.03730896 17.33110229 36.03439331 18.05706787 C36.02323426 20.2986376 35.99813818 22.53980186 35.97265625 24.78125 C35.96262089 26.30468171 35.95349601 27.82811971 35.9453125 29.3515625 C35.92330916 33.07825586 35.88880897 36.80471333 35.84765625 40.53125 C36.78561035 40.51030273 37.72356445 40.48935547 38.68994141 40.46777344 C42.1900425 40.39935627 45.68942691 40.34933414 49.18994141 40.31152344 C50.70112361 40.29148209 52.21222897 40.26424095 53.72314453 40.22949219 C55.90286268 40.18063891 58.08155056 40.15820776 60.26171875 40.140625 C61.57092285 40.11967773 62.88012695 40.09873047 64.22900391 40.07714844 C68.46853116 40.60916306 70.56125179 41.8495827 73.84765625 44.53125 C76.35738757 48.29584698 76.18853706 51.34062257 76.21875 55.70703125 C76.22777847 56.50981003 76.23680695 57.31258881 76.24610901 58.13969421 C76.26061263 59.83845288 76.26949853 61.53726742 76.27319336 63.23608398 C76.28506736 65.82437404 76.33422776 68.41026164 76.38476562 70.99804688 C76.394233 72.65103007 76.40146653 74.30402787 76.40625 75.95703125 C76.42578232 76.72598221 76.44531464 77.49493317 76.46543884 78.28718567 C76.43202566 82.30393752 76.03866847 84.79619863 73.48706055 87.98168945 C68.97759304 92.33765738 64.63580518 92.76210458 58.6328125 92.70703125 C57.91996094 92.69027344 57.20710938 92.67351562 56.47265625 92.65625 C55.73660156 92.64722656 55.00054687 92.63820313 54.2421875 92.62890625 C52.44386745 92.60555144 50.64571714 92.56968836 48.84765625 92.53125 C48.84765625 87.58125 48.84765625 82.63125 48.84765625 77.53125 C53.13765625 77.53125 57.42765625 77.53125 61.84765625 77.53125 C61.84765625 69.94125 61.84765625 62.35125 61.84765625 54.53125 C53.26765625 54.53125 44.68765625 54.53125 35.84765625 54.53125 C35.84765625 67.07125 35.84765625 79.61125 35.84765625 92.53125 C31.90828125 92.551875 27.96890625 92.5725 23.91015625 92.59375 C22.04435913 92.60740601 22.04435913 92.60740601 20.14086914 92.62133789 C19.16883545 92.62383545 18.19680176 92.62633301 17.1953125 92.62890625 C15.6949646 92.63676147 15.6949646 92.63676147 14.16430664 92.64477539 C11.84765625 92.53125 11.84765625 92.53125 10.84765625 91.53125 C10.77493884 89.17811445 10.76394757 86.82291332 10.78515625 84.46875 C10.79417969 83.17839844 10.80320312 81.88804688 10.8125 80.55859375 C10.82410156 79.55957031 10.83570312 78.56054688 10.84765625 77.53125 C14.47765625 77.53125 18.10765625 77.53125 21.84765625 77.53125 C21.84765625 56.74125 21.84765625 35.95125 21.84765625 14.53125 C14.25765625 14.53125 6.66765625 14.53125 -1.15234375 14.53125 C-1.15234375 18.82125 -1.15234375 23.11125 -1.15234375 27.53125 C-6.10234375 27.53125 -11.05234375 27.53125 -16.15234375 27.53125 C-16.23407311 25.0097479 -16.29317748 22.49095083 -16.33984375 19.96875 C-16.37754883 18.91204102 -16.37754883 18.91204102 -16.41601562 17.83398438 C-16.49996955 11.76131728 -15.43217194 6.88174387 -11.04931641 2.36303711 C-7.34957383 0.0236499 -4.24293725 -0.04624862 0 0 Z " fill="#FFFFFF" transform="translate(56.15234375,0.46875)"/>
</svg>
