<svg width="66" height="66" viewBox="0 0 66 66" fill="none" xmlns="http://www.w3.org/2000/svg">
<path d="M38.8207 52.7393V59.2364H26.7522V27.1924H32.058V20.4287H20.0174V39.2278H6.75471V27.1924H13.2626V20.4287H6.26911C4.60708 20.4308 3.01373 21.0917 1.8385 22.2664C0.663269 23.4411 0.0021065 25.0338 0 26.6951V39.7411C0.0021065 41.4024 0.663269 42.995 1.8385 44.1697C3.01373 45.3444 4.60708 46.0053 6.26911 46.0074H20.0174V59.7457C20.0226 61.4042 20.6846 62.9932 21.8587 64.1653C23.0327 65.3373 24.6232 65.997 26.2825 66.0001H39.3023C40.9643 65.998 42.5577 65.3372 43.7329 64.1624C44.9081 62.9877 45.5693 61.3951 45.5714 59.7338V52.7393H38.8207Z" fill="#1C2A3A"/>
<path d="M59.7295 19.9997H45.984V6.26856C45.9819 4.60668 45.3207 3.01347 44.1454 1.83834C42.97 0.663218 41.3766 0.00210631 39.7144 0H26.6934C25.0319 0.00315883 23.4395 0.664734 22.265 1.83975C21.0905 3.01476 20.4298 4.60737 20.4277 6.26856V13.2575H27.1631V6.7382H39.2208V38.8054H33.9304V45.5714H45.984V26.7498H59.2478V38.8054H52.7354V45.5714H59.7295C61.3917 45.5693 62.9852 44.9082 64.1605 43.7331C65.3358 42.558 65.9971 40.9647 65.9992 39.3029V26.2682C65.9971 24.6064 65.3358 23.0132 64.1605 21.838C62.9852 20.6629 61.3917 20.0018 59.7295 19.9997Z" fill="#1C2A3A"/>
</svg>
