<svg width="36" height="32" viewBox="0 0 36 32" fill="none" xmlns="http://www.w3.org/2000/svg">
<g clip-path="url(#clip0_2_3329)">
<path d="M1.30664 17.126H11.5692L14.566 9.25244L18.4311 22.6779L22.7478 13.3499L25.4798 17.2704H35.4026" stroke="white" stroke-width="1.5" stroke-linecap="round" stroke-linejoin="round"/>
<path d="M33.571 13.9264C34.3471 12.3471 34.6336 10.897 34.6336 9.60863C34.6336 6.82998 32.6267 1.08057 26.1066 1.08057C19.5866 1.08057 17.9487 6.66934 17.9487 6.66934C17.9487 6.66934 16.3108 1.08599 9.79075 1.08599C3.2707 1.08599 1.2627 6.83866 1.2627 9.61405C1.2627 10.859 1.53079 12.2559 2.25042 13.7744" stroke="white" stroke-width="1.5" stroke-linecap="round" stroke-linejoin="round"/>
<path d="M7.99121 20.9414C11.8987 25.0779 15.8995 29.0169 17.9487 30.9196C19.9958 29.019 23.9945 25.0844 27.8954 20.9523" stroke="white" stroke-width="1.5" stroke-linecap="round" stroke-linejoin="round"/>
</g>
<defs>
<clipPath id="clip0_2_3329">
<rect width="35.3333" height="31.0329" fill="white" transform="translate(0.666016 0.483398)"/>
</clipPath>
</defs>
</svg>
