<svg width="28" height="36" viewBox="0 0 28 36" fill="none" xmlns="http://www.w3.org/2000/svg">
<g clip-path="url(#clip0_2_3319)">
<path d="M20.6465 1.28418C18.9112 1.28418 16.7145 2.4775 13.9996 2.4775C11.2848 2.4775 9.08809 1.28418 7.35386 1.28418C4.36026 1.28418 -0.284975 3.64293 0.783431 9.76949C1.58138 14.3383 5.2635 16.7498 5.2635 20.372C5.2635 24.1532 3.98244 24.3463 3.84205 28.91C3.69547 33.6409 5.80857 34.7145 6.55284 34.7145C7.29711 34.7145 9.30282 35.019 10.2391 29.4251C11.3085 23.025 13.9996 23.3078 13.9996 23.3078C13.9996 23.3078 16.6919 23.0281 17.7613 29.4251C18.6976 35.019 20.7043 34.7145 21.4476 34.7145C22.1908 34.7145 24.3049 33.6409 24.1583 28.91C24.0169 24.3463 22.7368 24.1532 22.7368 20.372C22.7368 16.7498 26.419 14.3383 27.2169 9.76949C28.2864 3.64293 23.638 1.28418 20.6465 1.28418Z" stroke="white" stroke-width="1.5" stroke-linecap="round" stroke-linejoin="round"/>
<path d="M8.03935 14.6076C7.81121 14.2256 7.57999 13.8561 7.35289 13.4948C6.45688 12.0671 5.68369 10.8346 5.42665 9.36565C5.20368 8.08873 5.35958 7.1215 5.89017 6.48975" stroke="white" stroke-width="1.5" stroke-linecap="round" stroke-linejoin="round"/>
</g>
<defs>
<clipPath id="clip0_2_3319">
<rect width="27.858" height="34.5451" fill="white" transform="translate(0.0712891 0.727539)"/>
</clipPath>
</defs>
</svg>
