<svg width="32" height="30" viewBox="0 0 32 30" fill="none" xmlns="http://www.w3.org/2000/svg">
<g clip-path="url(#clip0_2_3384)">
<path d="M5.99532 28.9615C5.20987 29.1854 4.38451 29.0705 3.87353 28.6403C3.00827 27.9113 2.19557 26.7755 1.71184 25.0829C1.04805 22.7645 1.87438 18.1161 5.75492 17.0045C8.67482 16.1704 9.86612 18.1861 12.8026 17.3462C15.739 16.5062 17.3216 14.6054 16.7931 12.7658C15.8568 9.49459 10.4667 8.63516 7.99741 4.95999C7.34627 3.98669 7.93803 3.30539 9.38046 2.88784C10.3606 2.60753 11.3475 2.15494 12.0823 2.81873C12.8172 3.48252 13.626 4.24267 14.9302 5.06316C14.9302 5.06316 16.7795 2.00117 19.714 1.16121C22.6484 0.321258 28.6488 1.46001 30.8095 9.01572C32.9703 16.5714 24.5522 22.4394 19.5193 23.8799C10.9776 26.3229 9.55078 21.3328 7.25574 21.9898C5.4785 22.4978 6.12477 24.5836 7.50199 26.1574C8.30885 27.0792 7.62949 28.4934 6.13937 28.9167L5.99532 28.9615Z" stroke="white" stroke-width="1.5" stroke-linecap="round" stroke-linejoin="round"/>
</g>
<defs>
<clipPath id="clip0_2_3384">
<rect width="30.7796" height="29.27" fill="white" transform="translate(0.943359 0.365234)"/>
</clipPath>
</defs>
</svg>
