<svg width="28" height="34" viewBox="0 0 28 34" fill="none" xmlns="http://www.w3.org/2000/svg">
<g clip-path="url(#clip0_2_3350)">
<path d="M5.29548 17.2444C2.86733 14.0043 0.704102 10.8967 0.704102 6.49971C0.704102 3.4893 3.23708 2.43627 4.8371 2.07129" stroke="white" stroke-width="1.5" stroke-linecap="round" stroke-linejoin="round"/>
<path d="M7.36765 1.88068C7.36765 2.50582 6.8073 3.01185 6.1145 3.01185C5.50937 3.01185 5.0043 2.62399 4.88708 2.10844C4.87059 2.03364 4.86228 1.95727 4.8623 1.88068C4.8623 1.25554 5.42265 0.749512 6.1145 0.749512C6.80635 0.749512 7.36765 1.25554 7.36765 1.88068Z" stroke="white" stroke-width="1.5" stroke-linecap="round" stroke-linejoin="round"/>
<path d="M16.501 1.88068C16.501 2.50582 17.0613 3.01185 17.7532 3.01185C18.3593 3.01185 18.8643 2.62399 18.9815 2.10844C18.998 2.03364 19.0063 1.95727 19.0063 1.88068C19.0063 1.25554 18.446 0.749512 17.7532 0.749512C17.0604 0.749512 16.501 1.25554 16.501 1.88068Z" stroke="white" stroke-width="1.5" stroke-linecap="round" stroke-linejoin="round"/>
<path d="M18.5742 17.2454C21.0014 14.0054 23.1656 10.8977 23.1656 6.49981C23.1656 3.50179 20.6536 2.44495 19.0526 2.0752" stroke="white" stroke-width="1.5" stroke-linecap="round" stroke-linejoin="round"/>
<path d="M0.704102 6.49971C0.704102 3.4893 3.23708 2.43627 4.8371 2.07129" stroke="white" stroke-width="1.5" stroke-linecap="round" stroke-linejoin="round"/>
<path d="M18.5939 17.2607C18.3198 17.0376 17.9684 16.9323 17.6168 16.9681C17.2652 17.0038 16.9421 17.1776 16.7185 17.4513C15.2701 19.2222 13.6694 20.8628 11.9346 22.3543C10.1997 20.8626 8.59868 19.222 7.14978 17.4513C7.04285 17.3057 6.90745 17.1833 6.7518 17.0915C6.59615 16.9998 6.42349 16.9406 6.24429 16.9176C6.06509 16.8946 5.88308 16.9082 5.7093 16.9577C5.53553 17.0071 5.3736 17.0913 5.23335 17.2052C5.0931 17.3191 4.97744 17.4603 4.89339 17.6202C4.80934 17.7802 4.75865 17.9555 4.74439 18.1356C4.73014 18.3157 4.75261 18.4969 4.81046 18.668C4.8683 18.8392 4.96031 18.9968 5.0809 19.1314C8.02174 22.7526 10.9998 25.0397 11.1255 25.135L11.1417 25.1455C11.1921 25.1827 11.245 25.2165 11.2999 25.2465L11.3123 25.2542C11.4321 25.3167 11.5606 25.3611 11.6935 25.3857L11.7326 25.3923C11.7975 25.4025 11.8632 25.4079 11.9289 25.4085H11.9337C11.9997 25.408 12.0657 25.4025 12.1309 25.3923L12.17 25.3857C12.3029 25.3611 12.4314 25.3167 12.5512 25.2542L12.5636 25.2465C12.6185 25.2165 12.6714 25.1827 12.7218 25.1455L12.738 25.135C14.9619 23.3559 16.9884 21.3431 18.7826 19.1314C19.0045 18.8578 19.1091 18.5076 19.0738 18.1571C19.0384 17.8067 18.8659 17.4845 18.5939 17.2607Z" stroke="white" stroke-width="1.5" stroke-linecap="round" stroke-linejoin="round"/>
<path d="M24.0792 27.2447C24.0792 27.2447 23.3111 33.2484 18.1708 33.2484C13.4498 33.2484 12.1824 29.6958 11.9766 25.415" stroke="white" stroke-width="1.5" stroke-linecap="round" stroke-linejoin="round"/>
<path d="M27.2979 24.7575C27.2979 26.1145 26.1543 27.2143 24.7335 27.2143C23.3126 27.2143 22.1729 26.1184 22.1729 24.7575C22.1729 23.3967 23.3212 22.3008 24.7373 22.3008C26.1534 22.3008 27.2979 23.4005 27.2979 24.7575Z" stroke="white" stroke-width="1.5" stroke-linecap="round" stroke-linejoin="round"/>
<path d="M25.0699 24.7577C25.0728 24.825 25.0554 24.8916 25.0201 24.949C24.9847 25.0063 24.933 25.0518 24.8716 25.0795C24.8103 25.1072 24.742 25.1159 24.6756 25.1044C24.6092 25.093 24.5478 25.062 24.4992 25.0153C24.4506 24.9686 24.4171 24.9085 24.403 24.8427C24.3889 24.7768 24.3948 24.7082 24.42 24.6458C24.4452 24.5833 24.4886 24.5298 24.5444 24.4922C24.6003 24.4546 24.6661 24.4345 24.7335 24.4346C24.7768 24.4338 24.8199 24.4414 24.8602 24.4572C24.9005 24.4729 24.9374 24.4965 24.9686 24.5265C24.9999 24.5565 25.0249 24.5923 25.0423 24.632C25.0596 24.6717 25.069 24.7144 25.0699 24.7577Z" stroke="white" stroke-width="1.5" stroke-linecap="round" stroke-linejoin="round"/>
</g>
<defs>
<clipPath id="clip0_2_3350">
<rect width="27.6426" height="33.551" fill="white" transform="translate(0.178711 0.224609)"/>
</clipPath>
</defs>
</svg>
