<svg width="36" height="36" viewBox="0 0 36 36" fill="none" xmlns="http://www.w3.org/2000/svg">
<g clip-path="url(#clip0_2_3364)">
<path d="M7.20951 6.48462L7.4055 5.31238C7.68042 4.17751 8.3286 3.1679 9.24606 2.44556C10.1635 1.72322 11.297 1.33004 12.4647 1.3291C13.3959 1.3291 14.2889 1.699 14.9473 2.35744C15.6058 3.01588 15.9757 3.90893 15.9757 4.8401V30.5497C15.9757 32.7107 13.8034 34.6723 11.6436 34.6723C8.16432 34.6723 5.63186 32.3641 5.63186 28.7194C3.79595 27.3128 2.5603 24.9446 3.14018 22.7054L3.40408 21.6929L3.27495 21.5921C0.266815 19.2431 0.397037 15.4943 3.53316 13.3243" stroke="white" stroke-width="1.5" stroke-linecap="round" stroke-linejoin="round"/>
<path d="M11.3525 8.49737C9.68085 6.20956 7.08501 5.76672 4.44949 7.59131C3.11871 8.66499 2.15371 10.7761 3.53319 13.3222C3.53319 13.3222 6.61837 11.7728 8.71138 15.1841" stroke="white" stroke-width="1.5" stroke-linecap="round" stroke-linejoin="round"/>
<path d="M5.62891 28.7194C5.62891 28.7194 6.02983 26.7532 8.95642 26.1733" stroke="white" stroke-width="1.5" stroke-linecap="round" stroke-linejoin="round"/>
<path d="M10.4354 27.7203C10.7616 27.8335 7.8871 26.6692 9.21108 24.1753" stroke="white" stroke-width="1.5" stroke-linecap="round" stroke-linejoin="round"/>
<path d="M15.9734 19.1524C15.9734 19.1524 13.7728 18.0051 11.8633 19.8784" stroke="white" stroke-width="1.5" stroke-linecap="round" stroke-linejoin="round"/>
<path d="M3.40332 21.6929C3.40332 21.6929 4.26519 19.6928 7.31637 20.4992" stroke="white" stroke-width="1.5" stroke-linecap="round" stroke-linejoin="round"/>
<path d="M28.8426 6.35549L28.5956 5.31238C28.3207 4.17751 27.6725 3.1679 26.7551 2.44556C25.8376 1.72322 24.7041 1.33004 23.5364 1.3291C22.6052 1.3291 21.7122 1.699 21.0537 2.35744C20.3953 3.01588 20.0254 3.90893 20.0254 4.84011V30.5497C20.0252 31.0635 20.1263 31.5722 20.3229 32.0469C20.5194 32.5216 20.8076 32.9529 21.1709 33.3162C21.5341 33.6795 21.9655 33.9676 22.4401 34.1642C22.9148 34.3607 23.4236 34.4618 23.9373 34.4617C28.3261 34.4617 29.7883 32.4921 30.7906 29.5621C33.0467 28.2891 33.442 25.7872 32.8587 23.5481L32.5959 22.5367L32.725 22.4347C33.4245 21.8885 33.9858 21.1854 34.3636 20.3823C34.7413 19.5792 34.9251 18.6986 34.9 17.8114C34.8749 16.9243 34.6415 16.0554 34.2189 15.275C33.7962 14.4946 33.1961 13.8244 32.4668 13.3186" stroke="white" stroke-width="1.5" stroke-linecap="round" stroke-linejoin="round"/>
<path d="M25.085 8.7882C26.7657 5.84349 29.3809 5.94317 31.552 7.58768C33.1852 8.8607 33.4774 11.8382 32.4694 13.3185C32.4694 13.3185 27.9572 12.4125 25.572 14.7682" stroke="white" stroke-width="1.5" stroke-linecap="round" stroke-linejoin="round"/>
<path d="M25.8058 16.7444C25.8058 16.7444 26.5227 14.2278 23.7773 13.9775" stroke="white" stroke-width="1.5" stroke-linecap="round" stroke-linejoin="round"/>
<path d="M30.7932 29.5622C30.7932 29.5622 30.3923 27.596 27.4668 27.0161" stroke="white" stroke-width="1.5" stroke-linecap="round" stroke-linejoin="round"/>
<path d="M25.9909 28.5631C25.6647 28.6763 28.5392 27.512 27.2152 25.0181" stroke="white" stroke-width="1.5" stroke-linecap="round" stroke-linejoin="round"/>
<path d="M32.5978 22.5367C31.4949 21.6506 30.0934 21.2227 28.6836 21.3418" stroke="white" stroke-width="1.5" stroke-linecap="round" stroke-linejoin="round"/>
<path d="M20.0273 22.5366C20.9332 22.5071 21.8271 22.7497 22.5938 23.2331" stroke="white" stroke-width="1.5" stroke-linecap="round" stroke-linejoin="round"/>
</g>
<defs>
<clipPath id="clip0_2_3364">
<rect width="35.0534" height="34.5902" fill="white" transform="translate(0.473633 0.705078)"/>
</clipPath>
</defs>
</svg>
