<svg width="37" height="28" viewBox="0 0 37 28" fill="none" xmlns="http://www.w3.org/2000/svg">
<g clip-path="url(#clip0_2_3337)">
<path d="M22.3682 19.8669C22.3888 20.9089 22.642 21.9331 23.1092 22.8647C23.5764 23.7964 24.2459 24.6118 25.0687 25.2515C25.9337 25.9258 27.0688 26.5118 28.5504 26.8214C33.8172 27.9376 36.4771 27.6919 36.4717 22.0164C36.4717 18.1125 35.685 4.04317 26.5638 2.82167C22.7715 2.31309 22.0487 5.3871 22.0874 7.13338L22.3682 19.8669Z" stroke="white" stroke-width="1.5" stroke-linecap="round" stroke-linejoin="round"/>
<path d="M14.9662 19.8669C14.9459 20.9085 14.6933 21.9324 14.2269 22.8639C13.7605 23.7955 13.092 24.6112 12.2703 25.2515C11.4043 25.9258 10.2701 26.5118 8.7885 26.8214C3.52083 27.9376 0.860898 27.6919 0.867199 22.0164C0.867199 18.1125 1.65393 4.04317 10.7751 2.82167C14.5674 2.31309 15.2903 5.3871 15.2516 7.13338L14.9662 19.8669Z" stroke="white" stroke-width="1.5" stroke-linecap="round" stroke-linejoin="round"/>
<path d="M19.7637 0.651367V7.32146C19.7637 8.45475 20.4379 9.51693 21.564 10.1623L21.9906 10.4063" stroke="white" stroke-width="1.5" stroke-linecap="round" stroke-linejoin="round"/>
<path d="M17.5707 0.651367V7.32146C17.5707 8.45475 16.8965 9.51693 15.7704 10.1623L15.3438 10.4063" stroke="white" stroke-width="1.5" stroke-linecap="round" stroke-linejoin="round"/>
<path d="M18.6673 11.3179C17.426 12.4323 15.3115 13.0471 15.3115 13.0471" stroke="white" stroke-width="1.5" stroke-linecap="round" stroke-linejoin="round"/>
<path d="M18.667 11.3179C19.9074 12.4323 22.0218 13.0471 22.0218 13.0471" stroke="white" stroke-width="1.5" stroke-linecap="round" stroke-linejoin="round"/>
</g>
<defs>
<clipPath id="clip0_2_3337">
<rect width="36.6" height="27.6894" fill="white" transform="translate(0.367188 0.155273)"/>
</clipPath>
</defs>
</svg>
